# xmcd
#
# Track frame offsets:
#	150
#	13892
#	35165
#	51170
#	68730
#	91332
#	116920
#	133825
#	149975
#	166710
#	189360
#	203235
#	221267
#	244384
#
# Disc length: 3508 seconds
#
# Revision: 1
# Processed by: cddbd v1.5.2PL0 Copyright (c) Steve Scherf et al.
# Submitted via: audiograbber 1.83.01
#
DISCID=d90db20e
DTITLE=Madeline Bell - Melting Pot
DYEAR=1997
DGENRE=Soul
TTITLE0=Melting Pot
TTITLE1=On a Clear Day (You Can See Forever)
TTITLE2=The Happening
TTITLE3=Waters of March
TTITLE4=Something's Going On
TTITLE5=She's Leaving Home
TTITLE6=I Wish
TTITLE7=Sorry Seems to Be the Hardest Word
TTITLE8=Take 5
TTITLE9=Mercy Mercy Mercy
TTITLE10=Yes I Can
TTITLE11=Keep Me in Your Dreams
TTITLE12=Gone
TTITLE13=With a Little Help from My Friends
EXTD=
EXTT0=
EXTT1=
EXTT2=
EXTT3=
EXTT4=
EXTT5=
EXTT6=
EXTT7=
EXTT8=
EXTT9=
EXTT10=
EXTT11=
EXTT12=
EXTT13=
PLAYORDER=
